<?xml version="1.0" encoding="utf-8"?>
<!-- Generator: Adobe Illustrator 27.1.0, SVG Export Plug-In . SVG Version: 6.00 Build 0)  -->
<svg version="1.1" id="svg2325" xmlns:svg="http://www.w3.org/2000/svg"
	 xmlns="http://www.w3.org/2000/svg" xmlns:xlink="http://www.w3.org/1999/xlink" x="0px" y="0px" viewBox="0 0 60 60"
	 style="enable-background:new 0 0 60 60;" xml:space="preserve">
<style type="text/css">
	.st0{fill:#606060;}
	.st1{fill:#FFD800;}
</style>
<g>
	<g id="g2335">
		<g id="g2341" transform="translate(459.1059,19)">
			<g id="path2343">
				<path class="st0" d="M-407.4,33.8c-1.1,0.4-2.3,0.6-3.5,0.7l0.3,3H-455l4.2-39.9h36l0.8,8.1c0.6-0.1,1.2-0.1,1.9-0.1
					c0.6,0,1.2,0,1.7,0.1l-1.1-10c-0.1-0.9-0.9-1.6-1.8-1.6h-39.2c-0.9,0-1.7,0.7-1.8,1.6l-4.6,43.4c0,0.5,0.1,1,0.5,1.4
					c0.3,0.4,0.8,0.6,1.3,0.6h48.4c0.5,0,1-0.2,1.3-0.6c0.3-0.4,0.5-0.9,0.4-1.4L-407.4,33.8z M-440.3-6v3.6h15V-6H-440.3z"/>
			</g>
		</g>
		<g id="g2345" transform="translate(178.198,335.7281)">
			<g id="path2347">
				<path class="st0" d="M-142.6-313.4c-1,0-1.8-0.8-1.8-1.8v-9.5c0-4.1-3.4-7.5-7.5-7.5s-7.5,3.4-7.5,7.5v9.5c0,1-0.8,1.8-1.8,1.8
					s-1.8-0.8-1.8-1.8v-9.5c0-6.1,5-11,11-11c6.1,0,11,5,11,11v9.5C-140.9-314.2-141.7-313.4-142.6-313.4z"/>
			</g>
		</g>
	</g>
	<g>
		<path class="st1" d="M51.7,41.5c-0.1-1.2-0.8-2.1-1.8-2.8c-0.7-0.4-1.5-0.7-2.7-0.9c-2.1-0.3-2.2-1.1-2.2-1.4
			c-0.1-1.1,1.1-1.4,1.4-1.5c0.2,0,0.4-0.1,0.5-0.1H47c0.4,0,1.6,0.1,2.1,1.3c0.3,0.6,0.9,0.9,1.5,0.6c0.6-0.2,0.9-0.9,0.7-1.6
			c-0.6-1.4-1.7-2.3-3.2-2.7V32c0-0.7-0.5-1.2-1.2-1.2s-1.2,0.5-1.2,1.2v0.5c-2,0.5-3.3,2.1-3.2,3.9c0.1,1.1,0.7,3.1,4.2,3.7
			c2.1,0.3,2.5,1,2.5,1.6c0,0.3,0,0.6-0.2,0.8c-0.4,0.4-1.2,0.7-2,0.7c-1,0-2.2-0.4-2.5-1.5c-0.2-0.6-0.8-1-1.5-0.9
			c-0.6,0.2-1,0.8-0.9,1.5c0.4,1.6,1.7,2.8,3.5,3.2V46c0,0.7,0.5,1.2,1.2,1.2S48,46.7,48,46v-0.5c1.1-0.2,2.1-0.7,2.7-1.5
			C51.6,43.4,51.9,42.4,51.7,41.5L51.7,41.5z"/>
		<path class="st1" d="M47,26.4c-7,0-12.6,5.7-12.6,12.6S40.1,51.6,47,51.6c7,0,12.6-5.7,12.6-12.6S54,26.4,47,26.4z M57.3,39
			c0,5.6-4.6,10.2-10.2,10.2S36.8,44.7,36.8,39S41.4,28.8,47,28.8S57.3,33.4,57.3,39z"/>
	</g>
</g>
</svg>
