<?xml version="1.0" encoding="utf-8"?>
<!-- Generator: Adobe Illustrator 27.1.0, SVG Export Plug-In . SVG Version: 6.00 Build 0)  -->
<svg version="1.1" id="Layer_1" xmlns="http://www.w3.org/2000/svg" xmlns:xlink="http://www.w3.org/1999/xlink" x="0px" y="0px"
	 viewBox="0 0 60 60" style="enable-background:new 0 0 60 60;" xml:space="preserve">
<style type="text/css">
	.st0{fill:#606060;}
	.st1{fill:#FFD800;}
</style>
<g>
	<g transform="translate(0 1)">
		<g>
			<path class="st0" d="M57,48.8c-6-3.2-10.5-4.9-14.6-5.6l0.4-0.6c0.2-0.2,0.3-0.5,0.2-0.8l-0.9-3.7c0.3-0.5,0.7-1,1-1.5
				c3.7-1.3,5.6-3.4,5.9-6.6c1.6-0.1,3-1.5,3-3.2v-7.5c0-1.6-1.3-3.1-3-3.2C48.8,10.3,46.2-1,30-1S11.2,10.3,11,16.1
				c-1.6,0.1-3,1.5-3,3.2v7.5c0,1.7,1.5,3.2,3.3,3.2h1.5c0.6,0,1.1-0.2,1.5-0.4c0.6,3,1.8,6,3.6,8.5L17,41.8c0,0.2,0,0.5,0.2,0.8
				l0.4,0.6C13.5,43.9,9,45.6,3,48.8c-1.9,0.9-3,2.8-3,4.9V58c0,0.6,0.4,1,1,1h24h0.4h9.2H35h24c0.6,0,1-0.4,1-1v-4.3
				C60,51.7,58.8,49.8,57,48.8z M30,46.5l2.4,5.5h-4.8L30,46.5z M26.8,54h6.3l0.6,3h-7.5L26.8,54z M40.5,40l0.4,1.8l-1,1.4
				c-0.1,0.1-0.1,0.1-0.2,0.2l-4.2,5.8L34.2,51l-2.7-6.1c3.3-0.4,6.2-2.1,8.6-4.5C40.2,40.3,40.4,40.1,40.5,40z M44.4,33.8
				c0.6-1.4,1-2.8,1.3-4.2c0.4,0.2,0.8,0.4,1.3,0.4C46.8,31.4,46.1,32.7,44.4,33.8z M49.9,19.2v7.5c0,0.6-0.5,1.2-1.2,1.2h-1.5
				c-0.6,0-1.2-0.5-1.2-1.2V26v-6.8c0-0.6,0.5-1.2,1.2-1.2h1.5C49.3,18,49.9,18.5,49.9,19.2z M30,1c6.2,0,16.5,2,17,15.1
				c-0.4,0-0.8,0.2-1.2,0.4C44.6,8.9,37.9,3,30,3S15.4,8.9,14.2,16.5c-0.4-0.2-0.8-0.3-1.2-0.4C13.5,3,23.8,1,30,1z M13.9,26.7
				c0,0.6-0.5,1.2-1.2,1.2h-1.5c-0.6,0-1.2-0.5-1.2-1.2v-7.5c0-0.6,0.5-1.2,1.2-1.2h1.5c0.6,0,1.2,0.5,1.2,1.2V26.7z M16,19
				c0-7.7,6.3-14,14-14s14,6.3,14,14v7c0,3.3-0.9,6.3-2.3,8.9C39.4,35.6,35.9,36,31,36c-0.6,0-1,0.4-1,1s0.4,1,1,1
				c3.6,0,6.6-0.2,9.1-0.7c-0.1,0.1-0.1,0.1-0.2,0.2c-0.5,0.7-1,1.3-1.6,1.8c-2.4,2.2-5.2,3.5-7.9,3.7c-0.1-0.1-0.3-0.1-0.4-0.1
				c-0.2,0-0.3,0-0.4,0.1c-1.7-0.1-3.4-0.6-5-1.5s-3.2-2.3-4.5-4c-0.1-0.1-0.2-0.2-0.3-0.3h-0.1c-2.2-3-3.7-6.8-3.7-11.2V19L16,19z
				 M28.5,44.9L25.8,51l-1.3-1.8l-4.2-5.8l-0.1-0.1l-1.1-1.5l0.4-1.8c0.1,0.1,0.3,0.3,0.4,0.4C22.3,42.8,25.2,44.5,28.5,44.9z
				 M2,53.7c0-1.3,0.7-2.5,1.9-3.1c6.4-3.4,11-5.1,15.1-5.6l6,8.2L24.2,57H2V53.7z M58,57H35.8L35,53.2l6-8.3
				c4.1,0.6,8.7,2.3,15,5.6c1.2,0.7,1.9,1.9,1.9,3.2L58,57L58,57z"/>
		</g>
	</g>
	<path class="st1" d="M31.8,40h-2.2c-0.8,0-1.5-0.7-1.5-1.5v-0.7c0-0.8,0.7-1.5,1.5-1.5h2.2c0.8,0,1.5,0.7,1.5,1.5v0.7
		C33.4,39.3,32.7,40,31.8,40z"/>
</g>
</svg>
