<?xml version="1.0" encoding="utf-8"?>
<!-- Generator: Adobe Illustrator 27.1.0, SVG Export Plug-In . SVG Version: 6.00 Build 0)  -->
<svg version="1.1" id="Layer_1" xmlns="http://www.w3.org/2000/svg" xmlns:xlink="http://www.w3.org/1999/xlink" x="0px" y="0px"
	 viewBox="0 0 60 60" style="enable-background:new 0 0 60 60;" xml:space="preserve">
<style type="text/css">
	.st0{fill:#FFD800;}
	.st1{fill:#606060;}
</style>
<g transform="translate(1 1)">
	<g>
		<path class="st0" d="M34.5,38.5h9c2.5,0,4.5-2,4.5-4.5v-2c0-2.5-2-4.5-4.5-4.5h-9c-2.5,0-4.5,2-4.5,4.5v2
			C30,36.5,32,38.5,34.5,38.5z M35.5,29.5h7c1.9,0,3.5,1.6,3.5,3.5v0c0,1.9-1.6,3.5-3.5,3.5h-7c-1.9,0-3.5-1.6-3.5-3.5v0
			C32,31.1,33.6,29.5,35.5,29.5z"/>
		<path class="st0" d="M4,25.5h8c0.6,0,1-0.4,1-1s-0.4-1-1-1H4c-0.6,0-1,0.4-1,1S3.4,25.5,4,25.5z"/>
		<path class="st0" d="M16,25.5h8c0.6,0,1-0.4,1-1s-0.4-1-1-1h-8c-0.6,0-1,0.4-1,1S15.4,25.5,16,25.5z"/>
		<path class="st0" d="M4,29.5h13c0.6,0,1-0.4,1-1s-0.4-1-1-1H4c-0.6,0-1,0.4-1,1S3.4,29.5,4,29.5z"/>
		<path class="st0" d="M24,27.5h-3c-0.6,0-1,0.4-1,1s0.4,1,1,1h3c0.6,0,1-0.4,1-1S24.6,27.5,24,27.5z"/>
		<path class="st1" d="M58.1,15.1c-0.7-0.9-1.6-1.4-2.7-1.5L53,13.3v-2.8v-2c0-2.2-1.8-4-4-4H3c-2.2,0-4,1.8-4,4v2v8v22
			c0,1.8,1.2,3.3,2.9,3.8c-0.1,2,1.5,3.8,3.5,4l46.2,5.2c0.1,0,0.3,0,0.4,0c2,0,3.8-1.5,4-3.4L59,18C59.1,17,58.8,15.9,58.1,15.1z
			 M1,11.5h50v2.6v3.4H1V11.5z M3,6.5h46c1.1,0,2,0.9,2,2v1H1v-1C1,7.4,1.9,6.5,3,6.5z M1,40.5v-21h50v21c0,1.1-0.9,2-2,2H3.1H3
			C1.9,42.5,1,41.6,1,40.5z M57,17.6l-3,32.1c-0.1,1.1-1.1,1.9-2.2,1.8L5.7,46.3c-1-0.1-1.7-0.9-1.8-1.8H49c2.2,0,4-1.8,4-4v-22
			v-3.3l2.3,0.2c0.5,0,1,0.3,1.3,0.7C56.9,16.5,57.1,17.1,57,17.6z"/>
	</g>
</g>
</svg>
