<?xml version="1.0" encoding="utf-8"?>
<!-- Generator: Adobe Illustrator 27.1.0, SVG Export Plug-In . SVG Version: 6.00 Build 0)  -->
<svg version="1.1" id="Capa_2_00000166658279828182489530000009784595638469998504_"
	 xmlns="http://www.w3.org/2000/svg" xmlns:xlink="http://www.w3.org/1999/xlink" x="0px" y="0px" viewBox="0 0 220 100"
	 style="enable-background:new 0 0 220 100;" xml:space="preserve">
<style type="text/css">
	.st0{fill:#666666;}
</style>
<g>
	<path class="st0" d="M199,42.1c-0.3-2.2-1.5-4.2-3.2-5.6c-2.1-1.6-4.8-2.3-7.4-1.8c-2.7,0.3-5.1,1.8-6.5,4.1
		c-1,1.8-1.6,3.8-1.5,5.8c0.1,0.8,0.1,1.7,0.3,2.5c0.4,2.9,2.3,5.4,5.1,6.5c1.8,0.7,3.9,1,5.8,0.6c2.9-0.3,5.4-2.1,6.7-4.7
		C199.3,47.1,199.6,44.5,199,42.1L199,42.1z M196.1,48.6c-1,1.9-2.8,3.1-4.9,3.3c-1.2,0.2-2.5,0-3.7-0.3c-2.6-0.7-4.5-3-4.8-5.7
		c-0.1-0.5-0.2-1.1-0.1-1.6l0,0.1c-0.1-1.7,0.4-3.4,1.3-4.8c1.1-1.6,2.9-2.7,4.9-2.8c2.1-0.3,4.1,0.2,5.8,1.5
		c1.4,1.1,2.3,2.8,2.5,4.6C197.3,44.9,197,46.9,196.1,48.6z"/>
	<path class="st0" d="M217.9,50.6V35.5c0-0.3,0-0.4,0.4-0.5c1.1,0,1.6,0.5,1.6,1.6V53c0,0.6,0,0.6-0.7,0.7c-1,0.1-1.9-0.3-2.5-1.2
		c-3.3-4.3-6.6-8.5-10-12.7c-0.4-0.5-0.7-1-1-1.4l-0.3-0.5v15.8h-1.7c-0.1-0.1-0.2-0.2-0.2-0.3c0-0.1,0-0.2,0-0.4V35.8
		c0-0.7,0-0.6,0.7-0.7c1-0.2,1.9,0.3,2.5,1.1c3.4,4.4,6.9,8.8,10.3,13.2L217.9,50.6L217.9,50.6z"/>
	<path class="st0" d="M133.6,48.7c-0.5,1.3-1.4,2.5-2.5,3.5c-1.5,1.2-3.4,1.8-5.3,2c-1.5,0.2-3.1,0-4.6-0.4c-2.2-0.7-4-2.3-4.9-4.4
		c-1.4-3.1-1.4-6.7,0-9.8c1.2-2.6,3.7-4.4,6.6-4.7c1.9-0.3,3.8-0.1,5.6,0.6c2.1,0.8,3.8,2.5,4.7,4.6l-2.2,0.6l-0.1-0.2
		c-0.8-1.7-2.4-3-4.3-3.3c-1.6-0.4-3.3-0.3-4.9,0.3c-1.9,0.7-3.3,2.3-3.8,4.2c-0.6,2-0.5,4.2,0.3,6.2c0.7,2.1,2.5,3.6,4.7,4
		c1.4,0.3,2.8,0.3,4.2,0c1.8-0.3,3.4-1.5,4.2-3.2c0.1-0.3,0.4-0.4,0.6-0.3L133.6,48.7L133.6,48.7z"/>
	<path class="st0" d="M154.1,53.3l-4.6-10.8c-1-2.3-2-4.6-2.9-6.9c-0.1-0.3-0.4-0.5-0.7-0.5c-0.4,0-0.8,0-1.2,0
		c-0.5,0-0.7,0.2-0.8,0.6l-7.5,17.5l-0.2,0.6h1.9c0.3,0,0.5-0.2,0.6-0.4l1.5-3.7c0.1-0.3,0.4-0.6,0.8-0.5h8.6c0.3,0,0.6,0.2,0.7,0.5
		c0.5,1.2,1,2.5,1.5,3.7c0.1,0.2,0.2,0.3,0.4,0.4h2.1L154.1,53.3L154.1,53.3z M141.3,47l3.9-9.4l3.9,9.4H141.3L141.3,47z"/>
	<path class="st0" d="M113.2,53l-7.1-16.6c-0.2-0.5-0.3-1.2-0.7-1.4s-1,0-1.6,0c-0.5,0-0.7,0.2-0.9,0.6l-6.7,15.6l-1,2.5h1.8
		c0.3,0,0.5-0.1,0.6-0.4c0.5-1.3,1-2.5,1.6-3.8c0.1-0.3,0.3-0.4,0.6-0.4h8.8c0.3,0,0.6,0.2,0.6,0.4c0.5,1.3,1,2.6,1.6,3.8
		c0.1,0.1,0.2,0.2,0.3,0.3h2.2L113.2,53L113.2,53z M100.2,47l4-9.4L108,47C108,47,100.2,47,100.2,47z"/>
	<path class="st0" d="M79.1,35.1h2.1c0,0,0.3,0.2,0.3,0.4l3.2,8.6l2,5.5c0.2,0.5,0.3,1,0.5,1.5h0.2c0.9-2.6,1.8-5.3,2.7-7.9
		c0.9-2.6,1.8-4.9,2.7-7.5c0.1-0.3,0.3-0.5,0.6-0.4h1.8l-0.5,1.4c-2.1,5.6-4.2,11.1-6.2,16.7c-0.1,0.3-0.3,0.5-0.7,0.5c0,0,0,0,0,0
		c-0.4,0-0.8,0-1.2,0c-0.3,0-0.6-0.2-0.6-0.4l-5.5-14.6L79.1,35.1L79.1,35.1z"/>
	<path class="st0" d="M160.6,45.4v-7.7c0-0.4,0-0.6-0.5-0.6h-5.3c-0.3,0-0.4-0.2-0.4-0.5c0-0.4,0-0.7,0-1.1c0-0.4,0.1-0.5,0.5-0.5
		h13.8c0.4,0,0.5,0,0.5,0.5c0,0.4,0,0.7,0,1.1c0,0.4,0,0.5-0.5,0.5h-5.2c-0.4,0-0.6,0.2-0.6,0.6v15.3c0,0.5-0.1,0.6-0.6,0.6
		c-0.4,0-0.7,0-1.1,0c-0.4,0-0.5-0.2-0.5-0.5C160.6,50.6,160.5,48,160.6,45.4L160.6,45.4z"/>
	<path class="st0" d="M121.9,60.3V71h-1.3c-0.2-0.1-0.3-0.2-0.4-0.3l-5.9-7.4l-0.2-0.3v7.6c0,0.4,0,0.6-0.5,0.5c-1.2,0-1,0-1-1V61
		c0-0.4,0-0.6,0.5-0.5h0.5c0.4,0,0.7,0.1,0.9,0.4l5.6,7.3l0.3,0.4v-7.5c0-0.4,0-0.5,0.5-0.5S121.6,60.3,121.9,60.3L121.9,60.3z"/>
	<path class="st0" d="M205,68.2v-7.4c0-0.3,0-0.5,0.4-0.5c0.7,0,1.1,0.4,1.1,1.1v9.1c0,0.5-0.1,0.6-0.6,0.6
		c-0.6,0.1-1.1-0.2-1.4-0.7c-1.8-2.5-3.7-4.7-5.6-7.1l-0.2-0.4v7.4c0,0.4,0,0.6-0.6,0.6c-1,0-0.9,0-0.9-0.9v-9c0-0.7,0-0.7,0.7-0.7
		c0.5-0.1,1.1,0.2,1.4,0.7c1.8,2.3,3.6,4.6,5.4,7L205,68.2L205,68.2L205,68.2z"/>
	<path class="st0" d="M106.8,64.8c-0.1-2-1.4-3.7-3.3-4.4c-2-0.9-4.3-0.5-5.8,1c-1.5,1.5-2.1,3.7-1.5,5.8c0.4,2.5,2.7,4.2,5.2,4
		c2.2,0.2,4.2-1.1,5-3.2C106.9,67,107,65.9,106.8,64.8L106.8,64.8z M101.6,69.7H101c0,0,0,0,0,0c-2-0.2-3.5-2-3.3-4
		c0-0.1,0-0.3,0-0.4c0-2,1.7-3.7,3.8-3.6l0,0.1h0.5c2,0.1,3.6,1.8,3.4,3.9c0,0.2,0,0.5,0,0.7C105.3,68.3,103.6,69.8,101.6,69.7z"/>
	<path class="st0" d="M137.1,62.3c-0.5,0.2-0.9,0.4-1.2,0.6c-0.1,0.1-0.3,0.1-0.5,0c-1.3-1.2-3.1-1.6-4.8-0.9
		c-0.6,0.2-0.9,0.8-0.8,1.4c0,0.5,0.5,0.9,1.3,1l3.2,0.4c1.4,0.1,2.5,1.1,2.7,2.5c0.4,1.8-0.7,3.6-2.5,4h-0.4
		c-1.4,0.3-2.9,0.1-4.2-0.4c-1.1-0.3-2-1.1-2.5-2.1l1.3-0.6c0.4-0.2,0.2,0,0.3,0.2c1.3,1.3,3.2,1.8,4.9,1.2c0.7-0.1,1.2-0.7,1.4-1.4
		c0.2-0.6-0.1-1.3-0.7-1.5l0,0h-0.2c-0.8-0.2-1.7-0.3-2.5-0.4c-0.6,0-1.1-0.1-1.6-0.2c-1-0.1-1.9-0.9-2.1-1.9
		c-0.3-1.1,0.1-2.3,0.9-3c0.7-0.5,1.6-0.9,2.5-0.9c1.5-0.2,3,0.1,4.2,1C136.3,61.6,136.7,62,137.1,62.3L137.1,62.3z"/>
	<path class="st0" d="M90.9,63.2c-0.5,0-0.9,0.3-1.3,0.3c-0.2,0-0.3,0-0.4-0.2c-0.9-1.5-2.6-2.1-4.2-1.7c-1.6,0.2-2.8,1.6-2.8,3.2
		c-0.1,0.8,0,1.7,0.2,2.5c0.3,1.4,1.5,2.4,2.8,2.5c0.6,0.1,1.2,0.1,1.8,0c1-0.1,1.9-0.8,2.3-1.7c0-0.3,0.2-0.4,0.5-0.2
		s0.8,0.2,1.2,0.3c-0.3,0.9-0.9,1.7-1.6,2.3c-2.2,1.5-5,1.5-7.2,0c-1.1-0.9-1.8-2.4-1.8-3.8c-0.2-1.2-0.2-2.4,0.2-3.5
		c0.7-1.9,2.4-3.1,4.4-3.2c1.5-0.2,3,0.2,4.2,1.1C90,61.7,90.6,62.4,90.9,63.2L90.9,63.2z"/>
	<path class="st0" d="M191.9,70.5l-4-9.3c-0.5-1.2-0.2-1-1.4-1c-0.3,0-0.6,0.2-0.7,0.5l-2.9,6.9l-1.4,3.4l1.4,0
		c0.2,0,0.5-0.1,0.5-0.4c0.2-0.6,0.5-1.2,0.8-1.8c0.1-0.2,0.3-0.3,0.5-0.3h4.4c0.2,0,0.4,0.1,0.5,0.3c0.3,0.6,0.5,1.2,0.8,1.8
		c0.1,0.2,0.3,0.3,0.3,0.3h1.6L191.9,70.5L191.9,70.5z M184.7,66.8l1.8-4.2h0.3l1.8,4.2H184.7z"/>
	<path class="st0" d="M152.3,60.3c0,0.1,0,0.2,0,0.2v7.1c0,1.8-1.4,3.4-3.3,3.6c-1.1,0.2-2.2,0.1-3.2-0.2c-1.6-0.5-2.7-1.9-2.6-3.6
		v-6.6c0-0.3,0-0.5,0.5-0.5c0.7,0,1.1,0.4,1.1,1.1v5.3c-0.2,1.3,0.7,2.6,2.1,2.8c0.2,0,0.5,0,0.8,0c0.6,0,1.3-0.1,1.9-0.3
		c0.8-0.2,1.3-1,1.3-1.8v-6.3c0-0.9,0-0.8,0.8-0.8L152.3,60.3L152.3,60.3z"/>
	<path class="st0" d="M173.7,44.3v-8.5c0-0.5,0.2-0.7,0.7-0.7h0.9c0.4,0,0.5,0,0.5,0.5v17.5c0,0.4,0,0.6-0.6,0.6c-0.3,0-0.7,0-1,0
		c-0.4,0-0.6,0-0.6-0.6L173.7,44.3L173.7,44.3L173.7,44.3z"/>
	<path class="st0" d="M216.4,66.4v4c0,0.3,0,0.5-0.5,0.5c-1.3,0-1.1,0.2-1.1-1.1v-7.4c0-0.5-0.2-0.7-0.7-0.7h-2.5
		c-0.3,0-0.4,0-0.4-0.4c0-1.5-0.2-1.2,1.1-1.2h7c0.4,0,0.6,0,0.6,0.6c0,1.2,0.1,1-1,1h-2.1c-0.7,0-0.5,0.2-0.5,0.5
		C216.4,63.7,216.4,65.1,216.4,66.4L216.4,66.4z"/>
	<path class="st0" d="M172.8,66.4v-4.1c0-0.4-0.1-0.5-0.5-0.5h-2.6c-0.3,0-0.4,0-0.4-0.4c0-0.8,0.4-1.1,1.1-1.1h7
		c0.4,0,0.6,0,0.6,0.5c0,0.7-0.4,1-1.1,1h-2c-0.7,0-0.5,0-0.5,0.5v7.9c0,0.5-0.2,0.7-0.7,0.7c-0.7,0-0.8,0-0.8-0.8
		S172.8,67.7,172.8,66.4L172.8,66.4z"/>
	<path class="st0" d="M165.9,69.4V71h-6.7c-0.4,0-0.5,0-0.5-0.5v-9.6c0-0.4,0-0.5,0.5-0.5c0.7,0,1,0.3,1,1v7.5
		c0,0.4,0.1,0.6,0.6,0.6L165.9,69.4z"/>
</g>
<g>
	<path class="st0" d="M35.7,47.8c0-0.5-0.3-1.3-1.7-1.3h-1.5v2.6l0,0H34C35.4,49.1,35.7,48.3,35.7,47.8z"/>
	<path class="st0" d="M32.6,69c0.1-0.1,0.1-0.2,0.1-0.3c0-0.1,0-0.2-0.1-0.3c-0.1-0.2-0.3-0.2-0.5-0.2h-1.5v1.1H32
		C32.2,69.2,32.4,69.2,32.6,69L32.6,69z"/>
	<ellipse class="st0" cx="20" cy="49.6" rx="3.1" ry="3.3"/>
	<path class="st0" d="M28.2,36.4c0.1-0.2,0.1-0.3,0.1-0.5s0-0.3-0.1-0.5c-0.2-0.3-0.5-0.3-0.7-0.3h-2.1v1.7h1.9
		C27.6,36.8,28,36.8,28.2,36.4z"/>
	<path class="st0" d="M18.8,35.2c0,0.1-0.9,2.3-1,2.3h1.9C19.7,37.5,18.8,35.2,18.8,35.2z"/>
	<path class="st0" d="M55.9,35.2c0,0.1-1,2.3-1,2.3h1.9C56.9,37.5,56,35.2,55.9,35.2z"/>
	<path class="st0" d="M21.4,68.1h-1.2v1.1h1.2c0.1,0,0.3,0,0.5-0.1c0.1-0.1,0.2-0.3,0.2-0.4c0-0.2,0-0.3-0.1-0.4
		C21.8,68.1,21.5,68.1,21.4,68.1z"/>
	<path class="st0" d="M59.2,56.9c0-0.1-0.1-0.1-0.2-0.1h-0.2V57h0.1C59,57,59.1,57,59.2,56.9L59.2,56.9z"/>
	<path class="st0" d="M59,56.4c-0.3,0-0.6,0.3-0.6,0.6s0.3,0.6,0.6,0.6s0.6-0.3,0.6-0.6S59.3,56.4,59,56.4z M59.2,57.5l-0.2-0.4
		h-0.1v0.4h-0.1v-0.9H59c0.2,0,0.3,0.1,0.3,0.2s-0.1,0.2-0.2,0.2l0.2,0.4H59.2L59.2,57.5z"/>
	<path class="st0" d="M66.5,25.2H0.8C0.3,25.2,0,25.4,0,26v52c0,0.5,0.3,0.8,0.8,0.8h32.7l32.9,0c0.5,0,0.8-0.3,0.8-0.8V26
		C67.3,25.4,67,25.2,66.5,25.2L66.5,25.2z M55.7,34.6h0.6l2,4.6h-0.6L57.1,38h-2.3l-0.5,1.1h-0.6C53.7,39.2,55.7,34.6,55.7,34.6z
		 M45.8,34.6h0.7l1.2,3c0.2,0.5,0.2,0.6,0.4,1c0.1-0.4,0.2-0.5,0.3-1l1.2-3h0.7v4.6h-0.5v-2.6c0-0.9,0-1,0-1.4
		c-0.1,0.4-0.1,0.4-0.3,0.8l-1.3,3.2h-0.5l-1.2-3c-0.2-0.5-0.3-0.7-0.4-1c0,0.3,0,0.5,0,1.2v2.8h-0.5V34.6L45.8,34.6z M39.9,37
		c-1-0.1-1.3-0.1-1.6-0.5c-0.2-0.3-0.3-0.6-0.3-0.8c0-1.3,1.4-1.3,1.8-1.3c0.5,0,1.1,0.1,1.5,0.5c0.2,0.2,0.3,0.3,0.4,0.5l-0.5,0.2
		c-0.1-0.1-0.1-0.2-0.2-0.2c-0.3-0.3-0.8-0.4-1.2-0.4c-0.3,0-0.7,0-0.9,0.2c-0.3,0.2-0.3,0.4-0.3,0.6c0,0.1,0,0.3,0.1,0.3
		c0.1,0.2,0.3,0.2,0.7,0.3c0.3,0,0.7,0.1,1,0.1c0.2,0,0.3,0,0.5,0.1c0.4,0.1,0.9,0.4,0.9,1.2c0,0.2,0,0.5-0.2,0.8
		c-0.3,0.5-0.9,0.7-1.7,0.7c-0.3,0-0.7,0-1-0.1c-0.8-0.2-1-0.7-1.2-0.9l0.5-0.2c0.1,0.1,0.1,0.2,0.3,0.3c0.4,0.3,0.9,0.5,1.4,0.5
		c0.8,0,1.3-0.4,1.3-0.9C41.3,37.2,40.7,37.1,39.9,37L39.9,37z M33,34.6h0.6v4.6H33V34.6z M24.9,34.6h2.6c0.3,0,0.7,0,1.1,0.4
		c0.1,0.1,0.3,0.4,0.3,1c0,1.1-0.8,1.2-1,1.3l1.4,1.9h-0.7l-1.3-1.8h-1.8v1.8h-0.5C24.9,39.2,24.9,34.6,24.9,34.6z M18.5,34.6h0.6
		l2,4.6h-0.6L20,38h-2.3l-0.5,1.1h-0.6L18.5,34.6L18.5,34.6z M9.1,34.6h0.5V37l2.8-2.5h0.8l-2,1.8l2.1,2.8h-0.7l-1.8-2.4l-1.1,0.9
		v1.4H9.1V34.6L9.1,34.6z M12.3,52.8c0.8,0,1.5-0.1,2.1-0.4v-2.5h-1.8v-0.6H15v3.5c-0.9,0.5-1.8,0.7-2.8,0.7c-2.3,0-3.8-1.6-3.8-3.9
		s1.6-3.9,3.8-3.9c1.1,0,2,0.3,2.7,1l-0.5,0.5c-0.4-0.5-1.4-0.9-2.2-0.9c-1.9,0-3.1,1.4-3.1,3.2C9.1,51.4,10.3,52.8,12.3,52.8
		L12.3,52.8z M9.8,56.6v7.4H9.1v-7.4H9.8z M11.6,71H9v-3.3h2.5v0.4H9.4V69h2.1v0.4H9.4v1.1h2.2L11.6,71L11.6,71z M11.7,57.6v6.5H11
		v-7.4h0.9l4.5,6.5h0v-6.5h0.7v7.4h-0.9L11.7,57.6C11.7,57.6,11.7,57.6,11.7,57.6z M16.1,49.6c0-2.3,1.6-3.9,3.8-3.9
		s3.8,1.6,3.8,3.9s-1.6,3.9-3.8,3.9S16.1,51.8,16.1,49.6z M16.6,71L16.6,71l-1.1-1.4L14.4,71h-0.6l1.4-1.7L14,67.7h0.6l0.9,1.2
		l0.9-1.2H17l-1.2,1.5l1.4,1.7H16.6L16.6,71z M22.4,69.3c-0.2,0.4-0.7,0.4-0.9,0.4h-1.3V71h-0.4v-3.3h1.7c0.4,0,0.6,0.1,0.8,0.3
		c0.2,0.2,0.3,0.4,0.3,0.7C22.5,68.9,22.5,69.1,22.4,69.3z M22.1,64.3c-2.3,0-3.8-1.6-3.8-3.9s1.6-3.9,3.8-3.9c1,0,1.9,0.3,2.6,1.2
		l-0.6,0.5c-0.5-0.7-1.2-1-2-1c-1.9,0-3.1,1.4-3.1,3.3s1.2,3.3,3.1,3.3c0.7,0,1.7-0.4,2.2-1.2l0.6,0.4
		C24.2,63.9,23.2,64.2,22.1,64.3L22.1,64.3z M27.6,52.9c1.7,0,2-1.5,2-2.6v-4.4h0.7v4.6c0,1.6-0.7,3-2.7,3s-2.7-1.5-2.7-3v-4.6h0.7
		v4.4C25.6,51.3,25.9,52.9,27.6,52.9L27.6,52.9z M30.6,63.4v0.6h-4.1v-7.4h0.7v6.8C27.1,63.4,30.6,63.4,30.6,63.4z M27.6,71H25v-3.3
		h2.5v0.4h-2.1V69h2v0.4h-2v1.1h2.2L27.6,71L27.6,71z M32.8,71L32.8,71l-0.9-1.3h-1.3V71h-0.4v-3.3h1.8c0.2,0,0.5,0,0.8,0.3
		c0.1,0.1,0.2,0.3,0.2,0.7c0,0.8-0.5,0.9-0.7,0.9l1,1.4H32.8L32.8,71z M36.3,71h-0.4v-3.3h0.4V71z M36.6,61.2c0,1.6-0.7,3-2.7,3
		s-2.7-1.4-2.7-3v-4.6h0.7V61c0,1.1,0.3,2.6,2,2.6s2-1.5,2-2.6v-4.4h0.7L36.6,61.2L36.6,61.2z M35.9,53.3l-2.1-3.5h-1.3v3.5h-0.7
		v-7.4h1.9c0.6,0,2.6,0,2.6,2c0,1.4-1.1,1.8-1.9,1.9l2.2,3.6L35.9,53.3L35.9,53.3z M41.6,71H39v-3.3h2.5v0.4h-2.1V69h2v0.4h-2v1.1
		h2.2L41.6,71L41.6,71z M40.1,64.2c-1,0-1.8-0.3-2.4-1.1l0.7-0.4c0.4,0.6,1,0.9,1.7,0.9c0.9,0,1.7-0.6,1.7-1.5
		c0-2.1-3.8-0.9-3.8-3.7c0-1.3,1.1-2,2.4-2c0.8,0,1.5,0.3,2,0.9l-0.6,0.4c-0.3-0.5-0.8-0.7-1.5-0.7c-0.9,0-1.7,0.5-1.7,1.4
		c0,2.2,3.8,0.9,3.8,3.7C42.4,63.5,41.3,64.2,40.1,64.2L40.1,64.2z M44.7,46.7l-2.8,6.5h-0.3l-2.9-6.5h0v6.5H38v-7.4h1l2.7,6.2
		l2.7-6.2h1v7.4h-0.7L44.7,46.7L44.7,46.7L44.7,46.7z M44.1,56.6h0.7v7.4h-0.7V56.6z M47.1,71h-0.4l-1.9-2.4
		c-0.1-0.1-0.1-0.2-0.2-0.2c0,0.2,0,0.2,0,0.5V71h-0.4v-3.3h0.4l1.8,2.3c0.1,0.2,0.2,0.2,0.2,0.3c0-0.2,0-0.2,0-0.4v0l0,0v-2.2h0.4
		C47.1,67.7,47.1,71,47.1,71z M46.4,56.6h0.8l2.4,6.5l2.4-6.5h0.7l-2.8,7.4h-0.7L46.4,56.6L46.4,56.6z M51.2,49.1v0.6h-3.6v2.9h4
		v0.6h-4.7v-7.4h4.5v0.6h-3.8v2.6L51.2,49.1L51.2,49.1z M52.5,46.5v-0.6h5.8v0.6h-2.5v6.8H55v-6.8H52.5z M52.9,70
		c-0.1,0.2-0.3,0.5-0.5,0.7C52,71,51.6,71,51.3,71c-1,0-1.7-0.7-1.7-1.7c0-0.6,0.2-1,0.5-1.3c0.1-0.1,0.4-0.4,1.1-0.4
		c0.2,0,0.7,0,1,0.3c0.3,0.2,0.4,0.5,0.5,0.6v0l0,0l-0.4,0.1l0,0c-0.1-0.1-0.1-0.3-0.3-0.4C52,68.1,51.7,68,51.3,68
		c-0.3,0-1.2,0.1-1.2,1.2c0,0.3,0.1,0.7,0.3,0.9c0.2,0.2,0.4,0.4,1,0.4h0c0.4,0,0.7-0.2,0.8-0.3c0.2-0.2,0.2-0.3,0.3-0.4v0L52.9,70
		L52.9,70L52.9,70z M58,70.9h-2.6v-3.3h2.5v0.4h-2.1V69h2v0.4h-2v1.1H58L58,70.9L58,70.9z M58,64.1h-4.7v-7.4h4.5v0.6H54v2.6h3.6
		v0.6H54v2.9h4L58,64.1L58,64.1z M58.9,57.8c-0.4,0-0.8-0.3-0.8-0.8s0.3-0.8,0.8-0.8s0.7,0.3,0.8,0.8C59.7,57.5,59.4,57.8,58.9,57.8
		z M60.1,42.5H7.2v-0.4h52.9L60.1,42.5L60.1,42.5z"/>
</g>
</svg>
